<?xml version="1.0" standalone="no"?>
<!DOCTYPE svg PUBLIC "-//W3C//DTD SVG 20010904//EN"
 "http://www.w3.org/TR/2001/REC-SVG-20010904/DTD/svg10.dtd">
<svg version="1.0" xmlns="http://www.w3.org/2000/svg"
 width="450.000000pt" height="450.000000pt" viewBox="0 0 450.000000 450.000000"
 preserveAspectRatio="xMidYMid meet">

<g transform="translate(0.000000,450.000000) scale(0.100000,-0.100000)"
fill="#000000" stroke="none">
<path d="M2071 3354 c-167 -45 -297 -180 -332 -345 -6 -30 -9 -96 -7 -150 4
-85 9 -106 40 -171 19 -40 55 -94 79 -120 173 -187 508 -199 696 -25 99 91
141 186 150 340 l6 97 -252 0 -251 0 0 -105 0 -105 70 0 c39 0 70 -4 70 -9 0
-6 -10 -22 -22 -36 -43 -49 -144 -46 -203 6 -41 36 -57 82 -58 163 -1 82 16
128 64 170 34 31 46 36 90 36 55 0 100 -19 123 -51 14 -21 14 -21 153 31 76
28 140 53 142 55 7 8 -41 75 -83 113 -51 47 -129 89 -201 108 -65 18 -205 17
-274 -2z"/>
<path d="M150 2895 l0 -455 305 0 305 0 0 125 0 125 -151 0 -150 0 3 48 3 47
133 3 133 3 -3 112 -3 112 -132 3 -133 3 0 44 0 45 145 0 145 0 0 120 0 120
-300 0 -300 0 0 -455z"/>
<path d="M820 2895 l0 -455 153 0 c193 0 348 15 421 40 67 23 160 86 199 135
71 89 102 194 95 314 -9 132 -69 244 -173 323 -102 78 -206 98 -501 98 l-194
0 0 -455z m458 158 c57 -27 77 -67 77 -155 0 -62 -4 -82 -21 -104 -35 -48 -68
-65 -132 -71 l-62 -6 0 175 c0 96 3 178 7 182 11 10 91 -3 131 -21z"/>
<path d="M2950 3347 c0 -2 -72 -205 -160 -451 -88 -246 -160 -450 -160 -452 0
-2 78 -4 174 -4 l173 0 13 60 13 61 126 -3 126 -3 15 -57 14 -58 323 0 322 0
3 153 3 152 80 -152 80 -153 182 0 182 0 -115 177 c-64 97 -118 183 -121 190
-3 8 2 13 13 13 9 0 36 11 58 24 57 33 88 91 94 176 9 129 -33 223 -124 276
-78 46 -136 54 -406 54 l-248 0 -2 -415 -3 -414 -145 414 -144 415 -183 0
c-101 0 -183 -1 -183 -3z m1106 -250 c20 -18 27 -33 28 -66 1 -60 -35 -91
-105 -91 l-49 0 0 90 0 90 49 0 c38 0 57 -6 77 -23z m-916 -58 c0 -25 34 -177
56 -251 5 -16 -3 -18 -65 -18 -39 0 -71 2 -71 4 0 3 14 57 30 121 17 64 30
132 30 151 0 21 4 33 10 29 6 -3 10 -20 10 -36z"/>
<path d="M1929 2031 c-183 -58 -300 -193 -330 -380 -48 -294 174 -551 476
-551 195 0 359 99 442 267 l38 77 0 130 c0 130 0 131 -37 209 -62 128 -167
216 -303 252 -80 20 -215 19 -286 -4z m229 -301 c51 -31 72 -75 72 -148 0
-105 -45 -168 -129 -179 -117 -16 -198 85 -176 217 7 44 53 106 89 120 39 16
110 11 144 -10z"/>
<path d="M740 1576 l0 -456 165 0 165 0 0 135 0 135 68 0 c268 1 377 80 389
285 8 124 -29 229 -100 285 -15 12 -53 31 -85 43 -52 20 -80 22 -329 25 l-273
3 0 -455z m454 183 c33 -26 35 -73 4 -106 -17 -18 -32 -23 -75 -23 l-53 0 0
75 0 75 49 0 c34 0 56 -6 75 -21z"/>
<path d="M2756 2018 c-3 -7 -37 -204 -76 -438 -39 -234 -74 -433 -76 -442 -5
-17 7 -18 155 -18 101 0 161 4 161 10 0 6 9 88 19 183 11 94 23 208 27 252 7
74 8 77 17 45 5 -19 39 -137 75 -262 l66 -228 96 0 95 0 58 199 c33 109 65
224 72 256 17 71 25 80 25 29 0 -48 47 -474 53 -480 2 -3 74 -3 158 -2 l155 3
-68 430 c-37 237 -70 440 -73 453 -5 22 -6 22 -173 20 l-167 -3 -42 -140 c-24
-77 -54 -187 -67 -245 -25 -111 -24 -111 -46 0 -6 30 -32 129 -58 220 l-48
165 -167 3 c-129 2 -168 0 -171 -10z"/>
</g>
</svg>
